<svg height="512pt" viewBox="0 0 512 512" width="512pt" xmlns="http://www.w3.org/2000/svg"><path fill="#495c6c" d="m396.664062 201c-25.0625 0-47.792968-12.152344-61.664062-32.011719v54.128907c18.480469 11.703124 39.71875 17.882812 61.664062 17.882812 41.539063 0 75.335938 33.792969 75.335938 75.335938v31.664062h-432v-232.664062c0-41.539063 33.796875-75.335938 75.335938-75.335938h72c20.078124 0 38.65625 7.6875 52.386718 21h49.414063c-8.78125-16.519531-21.417969-30.503906-37.058594-41.113281-19.179687-13.011719-41.566406-19.886719-64.742187-19.886719h-72c-63.597657 0-115.335938 51.738281-115.335938 115.335938v396.664062h512v-195.664062c0-63.597657-51.738281-115.335938-115.335938-115.335938zm-356.664062 271v-84h38v50h40v-50h39v50h40v-50h39v50h40v-50h39v50h40v-50h40v50h40v-50h37v84zm472-472v45.550781l-3.589844 2.296875c-1.839844.980469-15.347656 7.878906-36.410156 10.917969v65.3125c0 23.75-19.253906 43-43 43s-43-19.25-43-43c0-23.746094 19.253906-43 43-43 1.011719 0 2.007812.050781 3 .117187v-61h20c21.589844 0 36.492188-7.109374 37.660156-7.6875zm-237 101.117188c21.589844 0 36.492188-7.113282 37.660156-7.6875l29.339844-16.429688v45l-10.589844 6.765625c-1.839844.980469-15.347656 7.882813-36.410156 10.921875v85.3125c0 23.746094-19.253906 43-43 43s-43-19.253906-43-43 19.253906-43 43-43c1.011719 0 2.007812.046875 3 .117188v-81zm0 0"/></svg>
