<svg id="Capa_1" enable-background="new 0 0 512 512" height="512" viewBox="0 0 512 512" width="512" xmlns="http://www.w3.org/2000/svg"><g id="XMLID_2685_"><g id="XMLID_702_"><path fill="#495c6c" id="XMLID_705_" d="m70 472c16.542 0 30-13.458 30-30s-13.458-30-30-30-30 13.458-30 30 13.458 30 30 30zm0-40c5.514 0 10 4.486 10 10s-4.486 10-10 10-10-4.486-10-10 4.486-10 10-10z"/><path id="XMLID_708_" fill="#495c6c" d="m256 472c16.542 0 30-13.458 30-30s-13.458-30-30-30-30 13.458-30 30 13.458 30 30 30zm0-40c5.514 0 10 4.486 10 10s-4.486 10-10 10-10-4.486-10-10 4.486-10 10-10z"/><path fill="#495c6c" id="XMLID_717_" d="m442 412c-16.542 0-30 13.458-30 30s13.458 30 30 30 30-13.458 30-30-13.458-30-30-30zm0 40c-5.514 0-10-4.486-10-10s4.486-10 10-10 10 4.486 10 10-4.486 10-10 10z"/><path fill="#495c6c" id="XMLID_720_" d="m512 294c0-50.319-33.959-94.514-82.582-107.472l-70.56-18.804c2.149-3.812 1.611-8.73-1.635-11.976-3.906-3.904-10.236-3.904-14.143 0l-6.136 6.136-10.578-2.819c-6.144-1.637-12.015-3.85-17.587-6.539l.663-.663c3.905-3.905 3.905-10.237 0-14.143-3.906-3.904-10.236-3.904-14.143 0l-4.004 4.005c-7.708-5.948-14.486-12.972-20.126-20.829l3.818-3.818c3.905-3.905 3.905-10.237 0-14.143-3.894-3.892-10.194-3.902-14.104-.035-5.431-12.336-8.413-25.9-8.413-40.002v-52.898c0-5.522-4.478-10-10-10h-42.139c-19.246 0-37.341 7.495-50.952 21.104l-18.893 18.896h-80.486c-5.522 0-10 4.478-10 10v114.548c-25.816 35.296-40 78.612-40 122.364v31.088c0 7.975 3.134 15.227 8.227 20.606-5.11 5.673-8.227 13.176-8.227 21.394 0 14.363 9.512 26.544 22.567 30.579-13.864 12.799-22.567 31.11-22.567 51.421 0 38.598 31.402 70 70 70s70-31.402 70-70c0-19.572-8.084-37.284-21.077-50h88.154c-12.993 12.716-21.077 30.428-21.077 50 0 38.598 31.402 70 70 70s70-31.402 70-70c0-19.572-8.084-37.284-21.077-50h88.154c-12.993 12.716-21.077 30.428-21.077 50 0 38.598 31.402 70 70 70s70-31.402 70-70c0-20.311-8.703-38.622-22.567-51.421 13.055-4.035 22.567-16.216 22.567-30.579 0-8.218-3.117-15.721-8.227-21.394 5.093-5.379 8.227-12.631 8.227-20.606zm-234.948-138.031-35.123 35.123c-3.905 3.905-3.905 10.237 0 14.143 1.953 1.952 4.512 2.929 7.071 2.929s5.118-.977 7.071-2.929l37.87-37.87c8.287 4.612 17.219 8.279 26.671 10.851l-28.932 28.932c-3.905 3.905-3.905 10.237 0 14.143 1.953 1.952 4.512 2.929 7.071 2.929s5.118-.977 7.071-2.929l37.111-37.112 81.333 21.675c36.622 9.759 63.082 41.126 67.165 78.146h-123.98c-5.522 0-10 4.478-10 10s4.478 10 10 10h124.549v14c0 5.514-4.486 10-10 10h-452c-5.514 0-10-4.486-10-10v-14h257.452c5.522 0 10-4.478 10-10s-4.478-10-10-10h-125.134c-1.87-27.241-11.375-53.018-27.781-75.073-16.58-22.289-38.791-38.956-64.537-48.563v-47.604h88.4c31.489 0 61.387-10.294 85.867-29.283 2.123 12.129 6.1 23.702 11.649 34.388l-43.487 43.487c-3.905 3.905-3.905 10.237 0 14.143 1.953 1.952 4.512 2.929 7.071 2.929s5.118-.977 7.071-2.929l40.302-40.302c5.847 7.691 12.618 14.676 20.179 20.776zm-142.423-95.969c2.652 0 5.196-1.054 7.071-2.929l21.822-21.824c9.834-9.832 22.907-15.247 36.811-15.247h32.139v38.556c-22.621 22.065-52.408 34.204-84.072 34.204h-88.4v-32.76zm-80.696 119.452c44.273 16.912 74.558 57.439 78.335 104.548h-112.238c.593-37.269 12.536-74.033 33.903-104.548zm66.067 262.548c0 27.57-22.43 50-50 50s-50-22.43-50-50 22.43-50 50-50 50 22.43 50 50zm186 0c0 27.57-22.43 50-50 50s-50-22.43-50-50 22.43-50 50-50 50 22.43 50 50zm186 0c0 27.57-22.43 50-50 50s-50-22.43-50-50 22.43-50 50-50 50 22.43 50 50zm-12-70h-448c-6.617 0-12-5.383-12-12s5.383-12 12-12h448c6.617 0 12 5.383 12 12s-5.383 12-12 12z"/><path fill="#495c6c" id="XMLID_837_" d="m322.448 304c2.63 0 5.21-1.07 7.08-2.931 1.859-1.859 2.92-4.439 2.92-7.069s-1.061-5.21-2.92-7.07c-1.87-1.86-4.45-2.93-7.08-2.93s-5.21 1.069-7.07 2.93-2.92 4.44-2.92 7.07 1.06 5.21 2.92 7.069c1.86 1.861 4.44 2.931 7.07 2.931z"/></g></g></svg>
